<mxfile host="65bd71144e">
    <diagram id="bISvTGnpREnJJeTCgNus" name="Login">
        <mxGraphModel dx="781" dy="567" grid="0" gridSize="10" guides="1" tooltips="1" connect="1" arrows="1" fold="1" page="0" pageScale="1" pageWidth="4681" pageHeight="3300" math="0" shadow="0">
            <root>
                <mxCell id="0"/>
                <mxCell id="1" parent="0"/>
                <mxCell id="eviqv0o-QjtMPjwaEZ2o-14" style="edgeStyle=orthogonalEdgeStyle;rounded=0;orthogonalLoop=1;jettySize=auto;html=1;exitX=1;exitY=0.75;exitDx=0;exitDy=0;entryX=0;entryY=0.5;entryDx=0;entryDy=0;strokeWidth=2;fontFamily=Verdana;fontSize=16;fontColor=#333333;" parent="1" source="eviqv0o-QjtMPjwaEZ2o-1" target="eviqv0o-QjtMPjwaEZ2o-6" edge="1">
                    <mxGeometry relative="1" as="geometry"/>
                </mxCell>
                <mxCell id="eviqv0o-QjtMPjwaEZ2o-16" style="edgeStyle=orthogonalEdgeStyle;rounded=0;orthogonalLoop=1;jettySize=auto;html=1;exitX=0.5;exitY=0;exitDx=0;exitDy=0;entryX=0.5;entryY=1;entryDx=0;entryDy=0;strokeWidth=2;fontFamily=Verdana;fontSize=16;" parent="1" source="eviqv0o-QjtMPjwaEZ2o-1" target="eviqv0o-QjtMPjwaEZ2o-11" edge="1">
                    <mxGeometry relative="1" as="geometry"/>
                </mxCell>
                <mxCell id="eviqv0o-QjtMPjwaEZ2o-17" style="edgeStyle=orthogonalEdgeStyle;rounded=0;orthogonalLoop=1;jettySize=auto;html=1;exitX=0;exitY=0.75;exitDx=0;exitDy=0;entryX=1;entryY=0.5;entryDx=0;entryDy=0;strokeWidth=2;fontFamily=Verdana;fontSize=16;fontColor=#333333;" parent="1" source="eviqv0o-QjtMPjwaEZ2o-1" target="eviqv0o-QjtMPjwaEZ2o-8" edge="1">
                    <mxGeometry relative="1" as="geometry"/>
                </mxCell>
                <mxCell id="eviqv0o-QjtMPjwaEZ2o-18" style="edgeStyle=orthogonalEdgeStyle;rounded=0;orthogonalLoop=1;jettySize=auto;html=1;exitX=0;exitY=0.25;exitDx=0;exitDy=0;entryX=1;entryY=0.5;entryDx=0;entryDy=0;strokeWidth=2;fontFamily=Verdana;fontSize=16;fontColor=#333333;" parent="1" source="eviqv0o-QjtMPjwaEZ2o-1" target="eviqv0o-QjtMPjwaEZ2o-9" edge="1">
                    <mxGeometry relative="1" as="geometry"/>
                </mxCell>
                <mxCell id="eviqv0o-QjtMPjwaEZ2o-19" style="edgeStyle=orthogonalEdgeStyle;rounded=0;orthogonalLoop=1;jettySize=auto;html=1;exitX=1;exitY=0.25;exitDx=0;exitDy=0;entryX=0;entryY=0.5;entryDx=0;entryDy=0;strokeWidth=2;fontFamily=Verdana;fontSize=16;fontColor=#333333;" parent="1" source="eviqv0o-QjtMPjwaEZ2o-1" target="eviqv0o-QjtMPjwaEZ2o-5" edge="1">
                    <mxGeometry relative="1" as="geometry"/>
                </mxCell>
                <mxCell id="eviqv0o-QjtMPjwaEZ2o-20" style="edgeStyle=orthogonalEdgeStyle;rounded=0;orthogonalLoop=1;jettySize=auto;html=1;exitX=0.75;exitY=0;exitDx=0;exitDy=0;entryX=0;entryY=0.5;entryDx=0;entryDy=0;strokeWidth=2;fontFamily=Verdana;fontSize=16;fontColor=#333333;" parent="1" source="eviqv0o-QjtMPjwaEZ2o-1" target="eviqv0o-QjtMPjwaEZ2o-4" edge="1">
                    <mxGeometry relative="1" as="geometry"/>
                </mxCell>
                <mxCell id="eviqv0o-QjtMPjwaEZ2o-21" style="edgeStyle=orthogonalEdgeStyle;rounded=0;orthogonalLoop=1;jettySize=auto;html=1;exitX=0.25;exitY=0;exitDx=0;exitDy=0;entryX=1;entryY=0.5;entryDx=0;entryDy=0;strokeWidth=2;fontFamily=Verdana;fontSize=16;fontColor=#333333;" parent="1" source="eviqv0o-QjtMPjwaEZ2o-1" target="eviqv0o-QjtMPjwaEZ2o-3" edge="1">
                    <mxGeometry relative="1" as="geometry"/>
                </mxCell>
                <mxCell id="eviqv0o-QjtMPjwaEZ2o-30" style="edgeStyle=orthogonalEdgeStyle;rounded=0;orthogonalLoop=1;jettySize=auto;html=1;exitX=0.5;exitY=1;exitDx=0;exitDy=0;strokeWidth=2;fontFamily=Verdana;fontSize=16;fontColor=#333333;" parent="1" source="eviqv0o-QjtMPjwaEZ2o-1" target="eviqv0o-QjtMPjwaEZ2o-29" edge="1">
                    <mxGeometry relative="1" as="geometry"/>
                </mxCell>
                <mxCell id="eviqv0o-QjtMPjwaEZ2o-31" style="edgeStyle=orthogonalEdgeStyle;rounded=0;orthogonalLoop=1;jettySize=auto;html=1;exitX=0.25;exitY=1;exitDx=0;exitDy=0;entryX=1;entryY=0.5;entryDx=0;entryDy=0;strokeWidth=2;fontFamily=Verdana;fontSize=16;fontColor=#333333;" parent="1" source="eviqv0o-QjtMPjwaEZ2o-1" target="eviqv0o-QjtMPjwaEZ2o-7" edge="1">
                    <mxGeometry relative="1" as="geometry"/>
                </mxCell>
                <mxCell id="eviqv0o-QjtMPjwaEZ2o-32" style="edgeStyle=orthogonalEdgeStyle;rounded=0;orthogonalLoop=1;jettySize=auto;html=1;exitX=0.75;exitY=1;exitDx=0;exitDy=0;entryX=0;entryY=0.5;entryDx=0;entryDy=0;strokeWidth=2;fontFamily=Verdana;fontSize=16;fontColor=#333333;" parent="1" source="eviqv0o-QjtMPjwaEZ2o-1" target="eviqv0o-QjtMPjwaEZ2o-10" edge="1">
                    <mxGeometry relative="1" as="geometry"/>
                </mxCell>
                <mxCell id="eviqv0o-QjtMPjwaEZ2o-1" value="Login" style="rounded=0;whiteSpace=wrap;html=1;strokeWidth=2;fontSize=16;fontFamily=Verdana;fillColor=#FFFFFF;strokeColor=#336600;fontColor=#333333;" parent="1" vertex="1">
                    <mxGeometry x="557" y="340" width="120" height="60" as="geometry"/>
                </mxCell>
                <mxCell id="eviqv0o-QjtMPjwaEZ2o-3" value="Validar Email" style="ellipse;whiteSpace=wrap;html=1;strokeWidth=2;fontFamily=Verdana;fontSize=16;fillColor=#FFFFCC;fontColor=#333333;" parent="1" vertex="1">
                    <mxGeometry x="397" y="185" width="160" height="80" as="geometry"/>
                </mxCell>
                <mxCell id="eviqv0o-QjtMPjwaEZ2o-4" value="Validar Senha" style="ellipse;whiteSpace=wrap;html=1;strokeWidth=2;fontFamily=Verdana;fontSize=16;fillColor=#FFFFCC;fontColor=#333333;" parent="1" vertex="1">
                    <mxGeometry x="677" y="185" width="160" height="80" as="geometry"/>
                </mxCell>
                <mxCell id="eviqv0o-QjtMPjwaEZ2o-5" value="Tratar Resposta&lt;br&gt;da API" style="ellipse;whiteSpace=wrap;html=1;strokeWidth=2;fontFamily=Verdana;fontSize=16;fillColor=#E6FFCC;fontColor=#333333;" parent="1" vertex="1">
                    <mxGeometry x="730" y="277" width="160" height="80" as="geometry"/>
                </mxCell>
                <mxCell id="eviqv0o-QjtMPjwaEZ2o-6" value="Tratar Erros da&lt;br&gt;API" style="ellipse;whiteSpace=wrap;html=1;strokeWidth=2;fontFamily=Verdana;fontSize=16;fillColor=#E6FFCC;fontColor=#333333;" parent="1" vertex="1">
                    <mxGeometry x="730" y="383" width="160" height="80" as="geometry"/>
                </mxCell>
                <mxCell id="eviqv0o-QjtMPjwaEZ2o-7" value="Regras de&lt;br&gt;Negócio" style="ellipse;whiteSpace=wrap;html=1;strokeWidth=2;fontFamily=Verdana;fontSize=16;fillColor=#CCFFFF;fontColor=#333333;" parent="1" vertex="1">
                    <mxGeometry x="397" y="476" width="160" height="80" as="geometry"/>
                </mxCell>
                <mxCell id="eviqv0o-QjtMPjwaEZ2o-8" value="Navegação" style="ellipse;whiteSpace=wrap;html=1;strokeWidth=2;fontFamily=Verdana;fontSize=16;fillColor=#E5CCFF;fontColor=#333333;" parent="1" vertex="1">
                    <mxGeometry x="349" y="383" width="160" height="80" as="geometry"/>
                </mxCell>
                <mxCell id="eviqv0o-QjtMPjwaEZ2o-9" value="Gravar dados&lt;br&gt;no Cache" style="ellipse;whiteSpace=wrap;html=1;strokeWidth=2;fontFamily=Verdana;fontSize=16;fillColor=#E5CCFF;fontColor=#333333;" parent="1" vertex="1">
                    <mxGeometry x="349" y="277" width="160" height="80" as="geometry"/>
                </mxCell>
                <mxCell id="eviqv0o-QjtMPjwaEZ2o-10" value="Controlar Estado" style="ellipse;whiteSpace=wrap;html=1;strokeWidth=2;fontFamily=Verdana;fontSize=16;fillColor=#E5CCFF;fontColor=#333333;" parent="1" vertex="1">
                    <mxGeometry x="677" y="476" width="160" height="80" as="geometry"/>
                </mxCell>
                <mxCell id="eviqv0o-QjtMPjwaEZ2o-11" value="Renderizar View" style="ellipse;whiteSpace=wrap;html=1;strokeWidth=2;fontFamily=Verdana;fontSize=16;fillColor=#E5CCFF;fontColor=#333333;" parent="1" vertex="1">
                    <mxGeometry x="537" y="109" width="160" height="80" as="geometry"/>
                </mxCell>
                <mxCell id="eviqv0o-QjtMPjwaEZ2o-29" value="Comunicar com API" style="ellipse;whiteSpace=wrap;html=1;strokeWidth=2;fontFamily=Verdana;fontSize=16;fillColor=#FFCCE6;fontColor=#333333;" parent="1" vertex="1">
                    <mxGeometry x="537" y="543" width="160" height="80" as="geometry"/>
                </mxCell>
                <mxCell id="eviqv0o-QjtMPjwaEZ2o-33" value="" style="rounded=0;whiteSpace=wrap;html=1;strokeColor=#336600;strokeWidth=2;fillColor=#E6FFCC;fontFamily=Verdana;fontSize=16;" parent="1" vertex="1">
                    <mxGeometry x="388" y="958" width="472" height="172" as="geometry"/>
                </mxCell>
                <mxCell id="eviqv0o-QjtMPjwaEZ2o-34" value="Data" style="text;html=1;align=right;verticalAlign=middle;resizable=0;points=[];autosize=1;fontSize=16;fontFamily=Verdana;" parent="1" vertex="1">
                    <mxGeometry x="812" y="935" width="48" height="23" as="geometry"/>
                </mxCell>
                <mxCell id="eviqv0o-QjtMPjwaEZ2o-41" style="edgeStyle=orthogonalEdgeStyle;rounded=0;orthogonalLoop=1;jettySize=auto;html=1;exitX=0;exitY=0.5;exitDx=0;exitDy=0;entryX=1;entryY=0.5;entryDx=0;entryDy=0;strokeColor=#336600;strokeWidth=2;fontFamily=Verdana;fontSize=16;" parent="1" source="eviqv0o-QjtMPjwaEZ2o-35" target="eviqv0o-QjtMPjwaEZ2o-40" edge="1">
                    <mxGeometry relative="1" as="geometry"/>
                </mxCell>
                <mxCell id="eviqv0o-QjtMPjwaEZ2o-35" value="&lt;font color=&quot;#333333&quot;&gt;RemoteAuthentication&lt;/font&gt;" style="rounded=0;whiteSpace=wrap;html=1;strokeColor=#336600;strokeWidth=2;fillColor=#FFFFFF;fontFamily=Verdana;fontSize=16;" parent="1" vertex="1">
                    <mxGeometry x="608" y="1014" width="224.5" height="60" as="geometry"/>
                </mxCell>
                <mxCell id="eviqv0o-QjtMPjwaEZ2o-36" value="" style="rounded=0;whiteSpace=wrap;html=1;strokeColor=#006666;strokeWidth=2;fillColor=#CCFFFF;fontFamily=Verdana;fontSize=16;" parent="1" vertex="1">
                    <mxGeometry x="388" y="1181" width="472" height="172" as="geometry"/>
                </mxCell>
                <mxCell id="eviqv0o-QjtMPjwaEZ2o-37" value="Domain" style="text;html=1;align=center;verticalAlign=middle;resizable=0;points=[];autosize=1;fontSize=16;fontFamily=Verdana;" parent="1" vertex="1">
                    <mxGeometry x="790" y="1156" width="72" height="23" as="geometry"/>
                </mxCell>
                <mxCell id="eviqv0o-QjtMPjwaEZ2o-38" value="&lt;font color=&quot;#333333&quot;&gt;Authentication&lt;/font&gt;" style="rounded=1;whiteSpace=wrap;html=1;strokeColor=#006666;strokeWidth=2;fillColor=#FFFFFF;fontFamily=Verdana;fontSize=16;dashed=1;" parent="1" vertex="1">
                    <mxGeometry x="538.5" y="1237" width="171" height="60" as="geometry"/>
                </mxCell>
                <mxCell id="eviqv0o-QjtMPjwaEZ2o-39" style="edgeStyle=orthogonalEdgeStyle;rounded=0;orthogonalLoop=1;jettySize=auto;html=1;exitX=0.5;exitY=1;exitDx=0;exitDy=0;entryX=0.5;entryY=0;entryDx=0;entryDy=0;strokeWidth=2;fontFamily=Verdana;fontSize=16;strokeColor=#336600;" parent="1" source="eviqv0o-QjtMPjwaEZ2o-35" target="eviqv0o-QjtMPjwaEZ2o-38" edge="1">
                    <mxGeometry relative="1" as="geometry"/>
                </mxCell>
                <mxCell id="eviqv0o-QjtMPjwaEZ2o-40" value="&lt;font color=&quot;#333333&quot;&gt;HttpPostClient&lt;/font&gt;" style="rounded=1;whiteSpace=wrap;html=1;strokeColor=#336600;strokeWidth=2;fillColor=#FFFFFF;fontFamily=Verdana;fontSize=16;dashed=1;" parent="1" vertex="1">
                    <mxGeometry x="408" y="1014" width="171" height="60" as="geometry"/>
                </mxCell>
                <mxCell id="eviqv0o-QjtMPjwaEZ2o-42" value="" style="rounded=0;whiteSpace=wrap;html=1;strokeColor=#660033;strokeWidth=2;fillColor=#FFCCE6;fontFamily=Verdana;fontSize=16;" parent="1" vertex="1">
                    <mxGeometry x="388" y="741" width="472" height="172" as="geometry"/>
                </mxCell>
                <mxCell id="eviqv0o-QjtMPjwaEZ2o-43" value="Infra" style="text;html=1;align=right;verticalAlign=middle;resizable=0;points=[];autosize=1;fontSize=16;fontFamily=Verdana;" parent="1" vertex="1">
                    <mxGeometry x="811" y="718" width="49" height="23" as="geometry"/>
                </mxCell>
                <mxCell id="eviqv0o-QjtMPjwaEZ2o-44" style="edgeStyle=orthogonalEdgeStyle;rounded=0;orthogonalLoop=1;jettySize=auto;html=1;exitX=0;exitY=0.5;exitDx=0;exitDy=0;entryX=1;entryY=0.5;entryDx=0;entryDy=0;strokeColor=#660033;strokeWidth=2;fontFamily=Verdana;fontSize=16;" parent="1" source="eviqv0o-QjtMPjwaEZ2o-45" target="eviqv0o-QjtMPjwaEZ2o-46" edge="1">
                    <mxGeometry relative="1" as="geometry"/>
                </mxCell>
                <mxCell id="eviqv0o-QjtMPjwaEZ2o-47" style="edgeStyle=orthogonalEdgeStyle;rounded=0;orthogonalLoop=1;jettySize=auto;html=1;exitX=0.5;exitY=1;exitDx=0;exitDy=0;entryX=0.5;entryY=0;entryDx=0;entryDy=0;strokeColor=#660033;strokeWidth=2;fontFamily=Verdana;fontSize=16;" parent="1" source="eviqv0o-QjtMPjwaEZ2o-45" target="eviqv0o-QjtMPjwaEZ2o-40" edge="1">
                    <mxGeometry relative="1" as="geometry"/>
                </mxCell>
                <mxCell id="eviqv0o-QjtMPjwaEZ2o-45" value="&lt;font color=&quot;#333333&quot;&gt;AxiosHttpClient&lt;/font&gt;" style="rounded=0;whiteSpace=wrap;html=1;strokeColor=#660033;strokeWidth=2;fillColor=#FFFFFF;fontFamily=Verdana;fontSize=16;" parent="1" vertex="1">
                    <mxGeometry x="504.75" y="797" width="224.5" height="60" as="geometry"/>
                </mxCell>
                <mxCell id="eviqv0o-QjtMPjwaEZ2o-46" value="&lt;font color=&quot;#333333&quot;&gt;Axios&lt;/font&gt;" style="rounded=0;whiteSpace=wrap;html=1;strokeColor=#000000;strokeWidth=2;fillColor=#E6E6E6;fontFamily=Verdana;fontSize=16;" parent="1" vertex="1">
                    <mxGeometry x="186" y="797" width="171" height="60" as="geometry"/>
                </mxCell>
                <mxCell id="eviqv0o-QjtMPjwaEZ2o-48" value="" style="rounded=0;whiteSpace=wrap;html=1;strokeColor=#330066;strokeWidth=2;fillColor=#E5CCFF;fontFamily=Verdana;fontSize=16;" parent="1" vertex="1">
                    <mxGeometry x="915" y="1178" width="472" height="172" as="geometry"/>
                </mxCell>
                <mxCell id="eviqv0o-QjtMPjwaEZ2o-49" value="Presentation" style="text;html=1;align=center;verticalAlign=middle;resizable=0;points=[];autosize=1;fontSize=16;fontFamily=Verdana;" parent="1" vertex="1">
                    <mxGeometry x="1277" y="1152" width="110" height="23" as="geometry"/>
                </mxCell>
                <mxCell id="eviqv0o-QjtMPjwaEZ2o-52" style="edgeStyle=orthogonalEdgeStyle;rounded=0;orthogonalLoop=1;jettySize=auto;html=1;exitX=0;exitY=0.5;exitDx=0;exitDy=0;entryX=1;entryY=0.5;entryDx=0;entryDy=0;strokeColor=#660033;strokeWidth=2;fontFamily=Verdana;fontSize=16;" parent="1" source="eviqv0o-QjtMPjwaEZ2o-51" target="eviqv0o-QjtMPjwaEZ2o-38" edge="1">
                    <mxGeometry relative="1" as="geometry"/>
                </mxCell>
                <mxCell id="eviqv0o-QjtMPjwaEZ2o-58" style="edgeStyle=orthogonalEdgeStyle;rounded=0;orthogonalLoop=1;jettySize=auto;html=1;exitX=1;exitY=0.5;exitDx=0;exitDy=0;entryX=0;entryY=0.5;entryDx=0;entryDy=0;strokeColor=#330066;strokeWidth=2;fontFamily=Verdana;fontSize=16;" parent="1" source="eviqv0o-QjtMPjwaEZ2o-51" target="eviqv0o-QjtMPjwaEZ2o-57" edge="1">
                    <mxGeometry relative="1" as="geometry"/>
                </mxCell>
                <mxCell id="eviqv0o-QjtMPjwaEZ2o-51" value="&lt;font color=&quot;#333333&quot;&gt;Login&lt;/font&gt;" style="rounded=0;whiteSpace=wrap;html=1;strokeColor=#330066;strokeWidth=2;fillColor=#FFFFFF;fontFamily=Verdana;fontSize=16;" parent="1" vertex="1">
                    <mxGeometry x="946" y="1237" width="224.5" height="60" as="geometry"/>
                </mxCell>
                <mxCell id="eviqv0o-QjtMPjwaEZ2o-53" value="" style="rounded=0;whiteSpace=wrap;html=1;strokeColor=#666600;strokeWidth=2;fillColor=#FFFFCC;fontFamily=Verdana;fontSize=16;" parent="1" vertex="1">
                    <mxGeometry x="915" y="958" width="472" height="172" as="geometry"/>
                </mxCell>
                <mxCell id="eviqv0o-QjtMPjwaEZ2o-54" value="Validation" style="text;html=1;align=center;verticalAlign=middle;resizable=0;points=[];autosize=1;fontSize=16;fontFamily=Verdana;" parent="1" vertex="1">
                    <mxGeometry x="1298" y="932" width="89" height="23" as="geometry"/>
                </mxCell>
                <mxCell id="eviqv0o-QjtMPjwaEZ2o-60" style="edgeStyle=orthogonalEdgeStyle;rounded=0;orthogonalLoop=1;jettySize=auto;html=1;exitX=0.25;exitY=1;exitDx=0;exitDy=0;entryX=0.25;entryY=0;entryDx=0;entryDy=0;strokeColor=#666600;strokeWidth=2;fontFamily=Verdana;fontSize=16;" parent="1" source="eviqv0o-QjtMPjwaEZ2o-55" target="eviqv0o-QjtMPjwaEZ2o-57" edge="1">
                    <mxGeometry relative="1" as="geometry">
                        <Array as="points">
                            <mxPoint x="1248" y="1074"/>
                            <mxPoint x="1248" y="1156"/>
                            <mxPoint x="1239" y="1156"/>
                        </Array>
                    </mxGeometry>
                </mxCell>
                <mxCell id="eviqv0o-QjtMPjwaEZ2o-55" value="&lt;font color=&quot;#333333&quot;&gt;EmailFieldValidation&lt;/font&gt;" style="rounded=0;whiteSpace=wrap;html=1;strokeColor=#666600;strokeWidth=2;fillColor=#FFFFFF;fontFamily=Verdana;fontSize=16;" parent="1" vertex="1">
                    <mxGeometry x="1180" y="1014" width="180.5" height="60" as="geometry"/>
                </mxCell>
                <mxCell id="eviqv0o-QjtMPjwaEZ2o-61" style="edgeStyle=orthogonalEdgeStyle;rounded=0;orthogonalLoop=1;jettySize=auto;html=1;exitX=0.5;exitY=1;exitDx=0;exitDy=0;entryX=0.158;entryY=0.033;entryDx=0;entryDy=0;entryPerimeter=0;strokeColor=#666600;strokeWidth=2;fontFamily=Verdana;fontSize=16;" parent="1" source="eviqv0o-QjtMPjwaEZ2o-56" target="eviqv0o-QjtMPjwaEZ2o-57" edge="1">
                    <mxGeometry relative="1" as="geometry"/>
                </mxCell>
                <mxCell id="eviqv0o-QjtMPjwaEZ2o-56" value="&lt;font color=&quot;#333333&quot;&gt;RequiredFieldValidation&lt;/font&gt;" style="rounded=0;whiteSpace=wrap;html=1;strokeColor=#666600;strokeWidth=2;fillColor=#FFFFFF;fontFamily=Verdana;fontSize=16;" parent="1" vertex="1">
                    <mxGeometry x="946" y="1014" width="200.5" height="60" as="geometry"/>
                </mxCell>
                <mxCell id="eviqv0o-QjtMPjwaEZ2o-57" value="&lt;font color=&quot;#333333&quot;&gt;Validation&lt;/font&gt;" style="rounded=1;whiteSpace=wrap;html=1;strokeColor=#330066;strokeWidth=2;fillColor=#FFFFFF;fontFamily=Verdana;fontSize=16;dashed=1;" parent="1" vertex="1">
                    <mxGeometry x="1196" y="1237" width="171" height="60" as="geometry"/>
                </mxCell>
                <mxCell id="eviqv0o-QjtMPjwaEZ2o-63" value="" style="rounded=0;whiteSpace=wrap;html=1;strokeColor=#663300;strokeWidth=2;fillColor=#FFE6CC;fontFamily=Verdana;fontSize=16;align=right;" parent="1" vertex="1">
                    <mxGeometry x="1543" y="718" width="275" height="639" as="geometry"/>
                </mxCell>
                <mxCell id="eviqv0o-QjtMPjwaEZ2o-64" value="Main" style="text;html=1;align=center;verticalAlign=middle;resizable=0;points=[];autosize=1;fontSize=16;fontFamily=Verdana;" parent="1" vertex="1">
                    <mxGeometry x="1770" y="693" width="48" height="23" as="geometry"/>
                </mxCell>
                <mxCell id="eviqv0o-QjtMPjwaEZ2o-65" value="&lt;font color=&quot;#333333&quot;&gt;LoginFactory&lt;/font&gt;" style="rounded=0;whiteSpace=wrap;html=1;strokeColor=#663300;strokeWidth=2;fillColor=#FFFFFF;fontFamily=Verdana;fontSize=16;" parent="1" vertex="1">
                    <mxGeometry x="1590.25" y="760" width="180.5" height="60" as="geometry"/>
                </mxCell>
                <mxCell id="eviqv0o-QjtMPjwaEZ2o-67" value="&lt;font color=&quot;#333333&quot;&gt;Index&lt;/font&gt;" style="rounded=0;whiteSpace=wrap;html=1;strokeColor=#663300;strokeWidth=2;fillColor=#FFFFFF;fontFamily=Verdana;fontSize=16;" parent="1" vertex="1">
                    <mxGeometry x="1589.5" y="850" width="180.5" height="60" as="geometry"/>
                </mxCell>
                <mxCell id="eviqv0o-QjtMPjwaEZ2o-68" value="&lt;font color=&quot;#333333&quot;&gt;DI&lt;/font&gt;" style="rounded=0;whiteSpace=wrap;html=1;strokeColor=#663300;strokeWidth=2;fillColor=#FFFFFF;fontFamily=Verdana;fontSize=16;" parent="1" vertex="1">
                    <mxGeometry x="1589.5" y="937" width="180.5" height="60" as="geometry"/>
                </mxCell>
            </root>
        </mxGraphModel>
    </diagram>
</mxfile>